<?xml version="1.0" standalone="no"?>
<!DOCTYPE svg PUBLIC "-//W3C//DTD SVG 20010904//EN"
 "http://www.w3.org/TR/2001/REC-SVG-20010904/DTD/svg10.dtd">
<svg version="1.0" xmlns="http://www.w3.org/2000/svg"
 width="764.000000pt" height="487.000000pt" viewBox="0 0 764.000000 487.000000"
 preserveAspectRatio="xMidYMid meet">

<g transform="translate(0.000000,487.000000) scale(0.100000,-0.100000)"
fill="#006afe" stroke="none">
<path d="M1595 3229 c-180 -27 -332 -120 -440 -267 -195 -266 -168 -626 66
-861 128 -129 280 -193 459 -193 157 -1 261 31 386 119 271 189 361 548 212
841 -87 170 -247 301 -423 346 -81 20 -187 27 -260 15z m-127 -229 c70 -43 95
-147 52 -218 -79 -130 -290 -74 -290 77 0 96 62 161 154 161 33 0 62 -7 84
-20z m405 -164 c-2 -3 -48 -47 -103 -97 -55 -50 -100 -93 -100 -96 0 -3 23
-37 50 -77 28 -40 50 -75 50 -79 0 -4 -8 -7 -18 -7 -9 0 -53 36 -97 81 l-80
80 45 40 c25 22 64 56 88 76 24 20 62 53 85 74 37 35 43 37 62 25 11 -7 19
-16 18 -20z m82 -91 c26 -42 48 -81 49 -89 0 -7 -40 -56 -91 -109 l-92 -97
-51 83 c-28 45 -56 89 -62 98 -9 13 -4 23 28 51 78 70 159 138 166 138 4 0 28
-34 53 -75z m-516 -95 c30 0 40 -6 62 -38 128 -186 183 -261 196 -266 16 -6
173 70 173 84 0 5 -6 10 -12 13 -8 3 23 42 77 96 96 97 106 102 185 82 19 -5
70 -15 113 -22 44 -7 76 -18 75 -24 -2 -5 -32 -52 -68 -103 l-65 -93 -51 5
c-55 6 -39 16 -349 -207 -112 -80 -159 -82 -203 -8 l-27 46 -3 -132 c-1 -73
-5 -133 -8 -133 -24 0 -107 29 -153 53 -85 44 -152 98 -197 158 l-41 54 9 190
c4 105 13 200 18 213 15 34 47 43 144 37 49 -3 105 -5 125 -5z m257 -166 c6
-25 -10 -54 -30 -54 -6 0 -18 12 -27 28 -9 15 -29 44 -44 64 -23 31 -26 40
-15 53 11 13 19 10 61 -26 27 -23 52 -52 55 -65z"/>
<path d="M1520 2241 c0 -6 4 -13 10 -16 6 -3 7 1 4 9 -7 18 -14 21 -14 7z"/>
<path d="M3780 2956 c-84 -31 -125 -70 -162 -153 -21 -45 -22 -67 -26 -350
l-4 -303 81 0 81 0 0 190 0 190 70 0 71 0 -3 73 -3 72 -67 3 c-76 3 -81 11
-54 77 18 42 61 65 121 65 l45 0 0 75 0 75 -57 -1 c-32 0 -74 -6 -93 -13z"/>
<path d="M2675 2905 c-45 -44 -27 -122 32 -142 46 -16 92 2 109 42 19 47 18
59 -12 94 -34 41 -92 44 -129 6z"/>
<path d="M2678 2693 c-17 -4 -18 -26 -18 -274 l0 -269 80 0 80 0 0 269 c0 236
-2 270 -16 275 -17 7 -99 6 -126 -1z"/>
<path d="M3129 2686 c-90 -32 -157 -98 -179 -174 -5 -20 -10 -110 -10 -199 l0
-163 80 0 80 0 0 171 0 171 29 29 c25 24 37 29 81 29 107 0 120 -26 120 -240
l0 -160 80 0 80 0 0 140 c0 198 -17 265 -82 331 -69 69 -190 97 -279 65z"/>
<path d="M4121 2681 c-66 -27 -113 -71 -145 -137 -26 -53 -28 -65 -23 -139 7
-115 47 -175 157 -230 110 -56 291 -11 358 89 24 35 52 123 52 164 0 94 -71
203 -159 243 -64 30 -181 34 -240 10z m182 -142 c50 -23 74 -120 46 -182 -26
-57 -142 -81 -197 -40 -58 43 -64 153 -11 205 23 24 36 28 83 28 30 0 66 -5
79 -11z"/>
<path d="M4789 2686 c-54 -19 -102 -51 -127 -86 -45 -60 -55 -106 -60 -282
l-4 -168 81 0 81 0 0 154 c0 84 5 167 11 184 15 42 49 62 108 62 42 0 56 -5
83 -29 l32 -29 4 -171 4 -171 74 0 74 0 0 163 c0 196 -11 237 -79 308 -34 35
-60 51 -100 63 -65 19 -133 20 -182 2z"/>
<path d="M5435 2690 c-120 -31 -196 -124 -203 -250 -5 -90 24 -168 81 -214 81
-65 100 -71 232 -71 157 0 165 4 165 91 l0 66 -89 -7 c-116 -10 -174 -1 -206
31 -30 29 -24 50 8 33 35 -19 156 -16 209 4 69 27 118 87 118 144 0 53 -19 92
-60 127 -56 46 -172 68 -255 46z m133 -146 c15 -4 22 -14 22 -30 0 -34 -40
-47 -113 -40 -71 7 -82 13 -65 33 28 35 101 51 156 37z"/>
<path d="M5820 2690 c0 -4 18 -31 39 -61 22 -30 62 -87 91 -126 l51 -73 -57
-77 c-109 -148 -131 -178 -138 -190 -6 -10 12 -13 76 -13 l83 1 58 80 c42 58
62 78 70 70 7 -5 35 -41 62 -80 l50 -71 83 0 c64 0 81 3 76 13 -4 6 -50 69
-101 140 l-94 127 30 43 c17 23 60 83 96 134 l65 92 -82 -2 -82 -2 -51 -67
c-27 -37 -55 -67 -61 -67 -6 -1 -29 25 -50 57 -22 31 -45 61 -53 66 -17 11
-161 16 -161 6z"/>
</g>
</svg>
